<?xml version="1.0" encoding="UTF-8" standalone="no"?>
<svg
   xmlns:dc="http://purl.org/dc/elements/1.1/"
   xmlns:cc="http://creativecommons.org/ns#"
   xmlns:rdf="http://www.w3.org/1999/02/22-rdf-syntax-ns#"
   xmlns:svg="http://www.w3.org/2000/svg"
   xmlns="http://www.w3.org/2000/svg"
   viewBox="0 0 8851.5469 2665.5867"
   height="2665.5867"
   width="8851.5469"
   xml:space="preserve"
   id="svg2"
   version="1.1"><metadata
     id="metadata8"><rdf:RDF><cc:Work
         rdf:about=""><dc:format>image/svg+xml</dc:format><dc:type
           rdf:resource="http://purl.org/dc/dcmitype/StillImage" /></cc:Work></rdf:RDF></metadata><defs
     id="defs6" /><g
     transform="matrix(1.3333333,0,0,-1.3333333,0,2665.5867)"
     id="g10"><g
       transform="scale(0.1)"
       id="g12"><g
         transform="scale(4.07282)"
         id="g14"><path
           id="path16"
           style="fill:#4180ca;fill-opacity:1;fill-rule:nonzero;stroke:none"
           d="m 13959.2,3699.76 c 2.2,36.53 -3.3,79.21 3.6,121.67 11.7,71.4 49.6,123.45 113.9,155.88 15.7,8.03 25.5,16.29 29,36.02 28,153.33 89.6,292.69 180.6,418.96 10.4,14.52 18.8,24.45 5.4,43.29 -17.1,23.95 -4.9,45.96 12.8,65.86 128.3,143.73 282.7,250.22 466.4,306.92 438.2,135.26 824.4,42.74 1154.3,-277.16 30.4,-29.54 71.1,-59.25 32.2,-111.14 -6.5,-8.65 5,-16.18 10,-23 94.5,-128.88 157,-271.67 184.8,-429.16 3.1,-17.4 14,-22.89 26.7,-29.32 79.2,-40.19 118.1,-106.54 118.4,-193.51 0.3,-78.66 8.1,-157.82 -5,-235.98 -18.8,-112.47 -133.3,-190.85 -244.2,-167.96 -33.6,6.99 -42.4,32.82 -42.2,64.41 0.5,129.05 3.1,258.15 0,387.09 -8.3,346.78 -164.9,607.98 -468.1,774.66 -507.4,278.99 -1158.2,-30.27 -1269.9,-598.94 -19.4,-98.89 -16,-198.17 -14.9,-297.78 1,-92.69 -0.1,-185.42 -2.4,-278.11 -0.8,-32.48 -19.9,-50.83 -54.7,-52.44 -141.4,-6.59 -236.4,83.21 -236.7,224.62 -0.1,29.71 0,59.42 0,95.12" /></g><g
         transform="scale(3.95715)"
         id="g18"><path
           id="path20"
           style="fill:#4180ca;fill-opacity:1;fill-rule:nonzero;stroke:none"
           d="m 15842.1,3313.53 c 60.9,-8.05 121.6,-17.86 182.9,-21.4 82.3,-4.79 144.6,21.62 190.7,71.2 57.8,62.3 84.3,134.7 79.9,215.95 -4.6,81.64 -76.2,129.9 -173.3,113.13 -86.6,-15.01 -163.3,-48.78 -241,-79.81 -68.7,-27.45 -133.1,-60.42 -183.6,-107.26 -70.9,-65.84 -30.6,-153.08 82.6,-180.46 20.2,-4.91 41.2,-7.64 61.8,-11.35" /></g><g
         transform="scale(3.76582)"
         id="g22"><path
           id="path24"
           style="fill:#4180ca;fill-opacity:1;fill-rule:nonzero;stroke:none"
           d="m 16291.7,3660.66 v 0 c 0,0.06 0,0.06 0,0.06 -6.7,20.38 -18.1,38.91 -31.7,56.35 -47,73.32 -112.4,139.51 -178.7,194.96 -34.7,30.22 -71.7,57.68 -110,83.51 -85.2,58.76 -151.9,92.93 -151.9,92.93 l -0.2,-0.12 c -101.3,50.66 -193.7,1.14 -218.1,-114.45 -27.3,-129.61 -5.4,-253.83 65,-366.96 48.4,-77.87 123.2,-114.8 212.7,-123.2 56,-5.21 112.3,-8.27 168.4,-12.29 45.7,-1.08 91.2,-4.25 135.6,10.79 58.5,19.85 103.7,55.58 113.7,118.53 3.5,21.76 1.2,41.54 -4.8,59.89" /></g><g
         transform="scale(4.01466)"
         id="g26"><path
           id="path28"
           style="fill:#4180ca;fill-opacity:1;fill-rule:nonzero;stroke:none"
           d="m 16299,3153.53 c -0.9,47.63 -22,124.9 -53.3,149.53 -13.5,10.57 -33.3,4.61 -38.4,-11.7 -6.7,-21.03 -17.6,-51.17 -34.2,-86.6 v 0 c -37.1,-87.73 -91.6,-159.54 -155.2,-218.47 v 0 c -83.2,-76.94 -182.1,-131.76 -278.7,-170.73 0,-0.06 -0.1,-0.06 -0.1,-0.06 -24.1,-9.67 -47.9,-18.45 -71.4,-26.26 -0.2,-0.06 -0.4,-0.12 -0.6,-0.17 -15.6,-5.23 -31,-10.07 -46.1,-14.51 -0.2,0 -0.3,-0.06 -0.4,-0.06 -7.3,-2.19 -14.6,-4.21 -21.8,-6.18 -0.3,-0.12 -0.7,-0.23 -1.1,-0.34 -14.6,-4.05 -28.9,-7.7 -42.8,-11.08 -0.6,-0.17 -1.1,-0.28 -1.8,-0.39 -6.4,-1.58 -12.7,-3.04 -18.9,-4.44 -0.6,-0.17 -1.1,-0.29 -1.6,-0.4 -13.3,-2.98 -26.2,-5.73 -38.6,-8.21 -0.8,-0.17 -1.7,-0.28 -2.5,-0.45 -5.4,-1.07 -10.8,-2.14 -16.1,-3.09 -0.7,-0.11 -1.3,-0.28 -2,-0.4 -11.7,-2.13 -22.8,-4.04 -33.4,-5.73 -0.9,-0.17 -1.8,-0.28 -2.7,-0.45 -4.6,-0.73 -9.1,-1.41 -13.4,-2.08 -0.6,-0.06 -1.2,-0.17 -1.8,-0.23 -5,-0.78 -9.9,-1.46 -14.6,-2.13 0,0 0,0 -0.1,0 -4.5,-0.62 -8.8,-1.18 -13,-1.69 -0.8,-0.11 -1.4,-0.17 -2.1,-0.28 -4.1,-0.51 -8,-1.01 -11.8,-1.41 0,0 0,0 0,-0.05 -31.2,-3.6 -50.6,-4.73 -53.6,-4.9 -0.3,0 -0.5,0 -0.5,0 v -0.05 c -404.7,-42.35 102.8,-131.09 484.5,-63.88 l -0.1,-0.06 c 0.9,0.17 1.7,0.34 2.6,0.5 9,1.58 17.9,3.26 26.7,5.06 7.9,1.52 15.6,3.21 23.2,4.9 5.9,1.35 11.8,2.7 17.6,4.1 3.6,0.9 7.3,1.75 10.9,2.64 50.8,12.94 97.5,29.36 137.2,49.77 236.2,114.27 259.1,305.13 259.1,305.13 7.8,36.22 11.9,77.33 10.9,124.85" /></g><path
         id="path30"
         style="fill:#172031;fill-opacity:1;fill-rule:nonzero;stroke:none"
         d="M 3912.95,9670.1 H 2959.1 c -125.3,0 -226.89,-101.6 -226.89,-226.9 V 5282.1 c 0,-827.6 281.52,-1175.3 960.62,-1175.3 117.85,0 212.67,5.7 325.56,27.8 139.74,27.3 270.46,-79.5 270.46,-222 v -908.7 c 0,-110.8 -80.82,-204.7 -190.09,-223.9 -325.33,-57.4 -562.15,-80.8 -869.65,-80.8 -761.73,0 -1324.56,198.9 -1655.76,612.5 -298,364.6 -381.09,761.7 -381.09,1805 v 4326.5 c 0,125.3 -101.59,226.9 -226.889,226.9 H 226.895 C 101.598,9670.1 0,9771.7 0,9897 v 920.4 c 0,125.6 101.598,226.9 226.895,226.9 h 738.476 c 125.299,0 226.889,101.6 226.889,227.1 v 1798 c 0,125.3 101.6,226.9 226.9,226.9 h 1086.15 c 125.3,0 226.9,-101.6 226.9,-226.9 v -1798 c 0,-125.5 101.59,-227.1 226.89,-227.1 h 953.85 c 125.3,0 226.9,-101.3 226.9,-226.9 V 9897 c 0,-125.3 -101.6,-226.9 -226.9,-226.9" /><path
         id="path32"
         style="fill:#172031;fill-opacity:1;fill-rule:nonzero;stroke:none"
         d="m 6966.4,6673 c -125.3,0 -226.89,-101.6 -226.89,-226.9 v -501.4 c 0,-1440.8 248.11,-1887.9 1042.8,-1887.9 480.43,0 811.63,248.6 927.67,728.8 41.99,140.7 60.28,269.4 64.79,650.7 1.59,124.4 102.5,226.9 226.9,226.9 h 1083.43 c 126.9,0 229.4,-104.6 226.9,-231.2 -20.5,-995 -81.5,-1338.4 -343.61,-1739.3 -414.27,-679.1 -1175.78,-1043.3 -2186.08,-1043.3 -943.69,0 -1655.53,298 -2069.58,861.3 -364.39,513.2 -513.39,1125.7 -513.39,2235.1 v 2450.9 c 0,1307.8 149,1854.4 662.39,2351.1 447.24,430.5 1092.93,662.2 1871.14,662.2 844.59,0 1506.75,-264.6 1937.29,-761.7 480.24,-529.7 629.24,-1125.7 629.24,-2417.5 V 6899.9 c 0,-125.3 -101.6,-226.9 -226.9,-226.9 z m 1793.25,1805 c 0,977.1 -298.23,1374.2 -1010.3,1374.2 -711.84,0 -1009.84,-397.1 -1009.84,-1374.2 V 8030.8 H 8759.65 V 8478" /><g
         transform="scale(1.03111)"
         id="g34"><path
           id="path36"
           style="fill:#172031;fill-opacity:1;fill-rule:nonzero;stroke:none"
           d="m 14740.4,2898.52 c -20.3,83.22 -36.8,174.96 -49.7,274.37 -23.2,179.32 -238.7,263.6 -368.8,138.1 -533.5,-514.98 -923.7,-693.42 -1458.8,-693.42 -1012,0 -1622,803.11 -1622,2119.94 0,1027.73 385.6,1653.95 1380.9,2248.16 340.5,216.76 740.8,403.55 1904.1,905.43 80.8,34.82 135.3,115.12 135.3,202.99 v 272.52 c 0,819.12 -224.4,1140.32 -786.7,1140.32 -515.2,0 -774.3,-283.28 -863.2,-949.17 -14.4,-108.33 -102.9,-191.15 -212.1,-191.15 h -1136 c -131.1,0 -237.3,114.73 -219.1,244.79 200.7,1447.5 1116.8,2212.3 2639.1,2212.3 738.7,0 1268.8,-192.6 1638.1,-610.2 337.2,-417.53 433.5,-786.68 433.5,-1766.49 V 4898.02 c 0,-1017.06 23,-1438.74 117.2,-1903.38 27.8,-136.46 -75.6,-264.48 -214.8,-264.48 h -1102 c -102.3,0 -190.9,68.96 -215,168.36 m -79,3567.42 c 0,170.3 -186.6,274.56 -333.9,189.12 -1073.2,-622.44 -1512.6,-1148.57 -1512.6,-1821.44 0,-529.62 321.2,-899.22 754.7,-899.22 400.5,0 771.4,221.8 1055.8,664.72 23.7,36.56 36,81.27 36,124.62 v 1742.2" /></g><g
         transform="scale(1.63044)"
         id="g38"><path
           id="path40"
           style="fill:#172031;fill-opacity:1;fill-rule:nonzero;stroke:none"
           d="m 12136.1,6474.3 c 0,-121.58 146.5,-185.27 234.2,-100.94 342.3,329.28 660,471.76 1025.1,471.76 363.6,0 607.5,-169.07 731.7,-501.25 34.5,-92.36 157.2,-111.61 226.7,-41.83 378.9,380.11 722.8,543.08 1113.5,543.08 568.7,0 832.7,-375.8 832.7,-1178.23 V 1865.76 c 0,-76.97 -62.3,-139.29 -139.2,-139.29 h -666.1 c -76.9,0 -139.2,62.32 -139.2,139.29 v 3557.57 c 0,436.7 -91.4,588.93 -355.5,588.93 -253.2,0 -515.7,-168.12 -751.8,-468.34 -19.6,-24.78 -30.2,-56.61 -30.2,-88.2 V 1865.76 c 0,-76.97 -62.3,-139.29 -139.2,-139.29 h -666.1 c -76.9,0 -139.2,62.32 -139.2,139.29 v 3557.57 c 0,436.7 -91.4,588.93 -355.5,588.93 -253.2,0 -515.6,-168.12 -751.7,-468.34 -19.5,-24.78 -30.2,-56.61 -30.2,-88.2 V 1865.76 c 0,-76.97 -62.3,-139.29 -139.1,-139.29 h -666.2 c -76.9,0 -139.2,62.32 -139.2,139.29 v 4769.03 c 0,76.85 62.3,139.02 139.2,139.02 h 666.2 c 76.8,0 139.1,-62.17 139.1,-139.02 V 6474.3" /></g><g
         transform="scale(2.02255)"
         id="g42"><path
           id="path44"
           style="fill:#172031;fill-opacity:1;fill-rule:nonzero;stroke:none"
           d="m 15635.5,4302.98 c -55.8,-24.33 -122.3,-0.2 -146.6,55.72 -151.9,350.6 -318.9,488 -588.9,488 -237.4,0 -401.3,-147.34 -401.3,-360.34 0,-221.01 114.8,-335.52 687.9,-646.61 458.4,-253.93 663.1,-384.76 826.9,-556.77 179.9,-188.23 286.5,-466.59 286.5,-769.52 0,-720.58 -499.4,-1203.43 -1252.6,-1203.43 -663.3,0 -1088.5,327.16 -1353.8,1038.19 -21.9,58.64 10.3,124.5 69.3,144.92 l 498.2,171.86 c 57.3,19.77 121.3,-8.7 142.4,-65.61 156.7,-424.07 347.4,-593.61 643.9,-593.61 253.7,0 433.8,171.91 433.8,409.43 0,229.27 -130.9,376.61 -573.1,614.03 -556.7,311.09 -712.2,417.4 -892.3,605.77 -188.4,196.58 -294.8,474.85 -294.8,769.57 0,663.14 499.4,1137.99 1187.1,1137.99 613,0 1019.8,-279.4 1276.9,-879.7 23.9,-56.17 -3.6,-122.22 -59.6,-146.7 l -489.9,-213.19" /></g><g
         transform="scale(2.39334)"
         id="g46"><path
           id="path48"
           style="fill:#172031;fill-opacity:1;fill-rule:nonzero;stroke:none"
           d="m 14847.1,4519.85 v -34.62 c 0,-80.46 93.1,-122.72 155.8,-72.35 215.1,173.01 403.3,250.26 605.3,250.26 249,0 442.7,-124.52 553.5,-352.79 103.7,-235.29 138.3,-477.42 138.3,-1003.21 v -823.33 c 0,-532.77 -34.6,-767.92 -138.3,-1003.2 -110.8,-228.38 -304.5,-352.9 -553.5,-352.9 -202,0 -390.2,77.26 -605.3,250.28 -62.7,50.35 -155.8,8.11 -155.8,-72.37 V 94.8042 C 14847.1,42.4502 14804.7,0 14752.3,0 h -453.8 c -52.4,0 -94.8,42.4502 -94.8,94.8042 V 4519.85 c 0,52.35 42.4,94.8 94.8,94.8 h 453.8 c 52.4,0 94.8,-42.45 94.8,-94.8 m 0,-2601.65 c 0,-31.3 16,-61.96 42.1,-79.43 152.7,-102.91 274.3,-143.73 407.6,-143.73 131.4,0 249,69.15 297.5,179.87 55.4,117.62 62.4,207.54 62.4,567.41 v 906.23 c 0,359.87 -7,449.66 -62.4,567.4 -48.5,110.65 -166.1,179.88 -297.5,179.88 -132.7,0 -259.6,-46.21 -407.3,-143.94 -26.4,-17.47 -42.4,-48.1 -42.4,-79.72 V 1918.2" /></g><g
         transform="scale(2.78942)"
         id="g50"><path
           id="path52"
           style="fill:#172031;fill-opacity:1;fill-rule:nonzero;stroke:none"
           d="m 15099.7,2392.25 c -44.9,0 -81.3,-36.42 -81.3,-81.34 v -179.75 c 0,-516.53 88.9,-676.81 373.9,-676.81 172.1,0 290.9,89.12 332.5,261.27 15,50.44 21.6,96.58 23.2,233.28 0.6,44.59 36.8,81.34 81.4,81.34 h 388.4 c 45.5,0 82.2,-37.5 81.3,-82.88 -7.3,-356.71 -29.2,-479.82 -123.2,-623.54 -148.5,-243.45 -421.6,-374.018 -783.6,-374.018 -338.4,0 -593.6,106.828 -742,308.778 -130.7,183.98 -184.1,403.56 -184.1,801.27 v 878.64 c 0,468.85 53.4,664.81 237.5,842.87 160.3,154.34 391.8,237.38 670.8,237.38 302.8,0 540.2,-94.85 694.5,-273.07 172.2,-189.88 225.6,-403.55 225.6,-866.65 v -405.43 c 0,-44.92 -36.4,-81.34 -81.4,-81.34 z m 642.8,647.09 c 0,350.28 -106.8,492.64 -362.1,492.64 -255.2,0 -362,-142.36 -362,-492.64 v -160.32 h 724.1 v 160.32" /></g><g
         transform="scale(3.18775)"
         id="g54"><path
           id="path56"
           style="fill:#172031;fill-opacity:1;fill-rule:nonzero;stroke:none"
           d="m 15795.5,937.558 c -6.5,26.916 -11.9,56.591 -16.1,88.742 -7.5,58.01 -77.1,85.27 -119.3,44.68 -172.5,-166.58 -298.8,-224.301 -471.9,-224.301 -327.2,0 -524.6,259.771 -524.6,685.721 0,332.43 124.7,534.98 446.7,727.19 110.2,70.11 239.6,130.53 615.9,292.87 26.1,11.26 43.8,37.24 43.8,65.66 v 88.15 c 0,264.95 -72.7,368.85 -254.5,368.85 -166.7,0 -250.4,-91.64 -279.3,-307.02 -4.6,-35.04 -33.2,-61.83 -68.6,-61.83 h -367.4 c -42.4,0 -76.7,37.11 -70.9,79.18 64.9,468.22 361.3,715.6 853.7,715.6 239,0 410.4,-62.33 529.9,-197.38 109.1,-135.06 140.2,-254.47 140.2,-571.4 V 1584.32 c 0,-328.98 7.4,-465.38 37.9,-615.674 9,-44.138 -24.5,-85.547 -69.5,-85.547 H 15865 c -33.1,0 -61.7,22.305 -69.5,54.459 M 15770,2091.48 c 0,55.08 -60.4,88.8 -108.1,61.17 -347.1,-201.34 -489.2,-371.52 -489.2,-589.16 0,-171.32 103.9,-290.87 244.1,-290.87 129.5,0 249.5,71.75 341.6,215.01 7.5,11.83 11.6,26.29 11.6,40.31 v 563.54" /></g><g
         transform="scale(3.59815)"
         id="g58"><path
           id="path60"
           style="fill:#172031;fill-opacity:1;fill-rule:nonzero;stroke:none"
           d="m 15387.1,2363.49 379.3,673.87 c 11.2,19.82 32.2,32.12 55,32.12 h 337.3 c 49.5,0 79.7,-54.4 53.5,-96.44 l -389.1,-624 c -9.8,-15.87 -12.2,-35.24 -6.4,-53 l 469.8,-1430.958 c 13.5,-40.799 -16.9,-82.709 -59.9,-82.709 h -344.7 c -27.8,0 -52.3,18.204 -60.3,44.857 l -268.7,890.34 c -15.6,51.78 -84.8,61.2 -113.6,15.46 l -160.5,-254.19 c -6.3,-10.09 -9.7,-21.7 -9.7,-33.63 V 845.434 c 0,-34.824 -28.3,-63.061 -63.1,-63.061 h -301.8 c -34.8,0 -63.1,28.237 -63.1,63.061 V 3788.79 c 0,34.82 28.3,63.05 63.1,63.05 h 301.8 c 34.8,0 63.1,-28.23 63.1,-63.05 V 2394.42 c 0,-64.89 86.2,-87.54 118,-30.93" /></g></g></g></svg>